{
 "asset": {
  "version": "2.0",
  "generator": "datahub make-textured.py"
 },
 "scene": 0,
 "scenes": [
  {
   "name": "uv-cube",
   "nodes": [
    0
   ]
  }
 ],
 "nodes": [
  {
   "name": "uv-cube",
   "mesh": 0
  }
 ],
 "meshes": [
  {
   "name": "uv-cube",
   "primitives": [
    {
     "attributes": {
      "POSITION": 1,
      "NORMAL": 2,
      "TEXCOORD_0": 3
     },
     "material": 0,
     "indices": 0
    }
   ]
  }
 ],
 "materials": [
  {
   "pbrMetallicRoughness": {
    "baseColorTexture": {
     "index": 0
    },
    "metallicFactor": 0.0,
    "roughnessFactor": 0.8
   },
   "name": "uv-grid"
  }
 ],
 "accessors": [
  {
   "bufferView": 0,
   "componentType": 5125,
   "count": 36,
   "type": "SCALAR"
  },
  {
   "bufferView": 1,
   "componentType": 5126,
   "count": 24,
   "type": "VEC3",
   "min": [
    -0.5,
    -0.5,
    -0.5
   ],
   "max": [
    0.5,
    0.5,
    0.5
   ]
  },
  {
   "bufferView": 2,
   "componentType": 5126,
   "count": 24,
   "type": "VEC3"
  },
  {
   "bufferView": 3,
   "componentType": 5126,
   "count": 24,
   "type": "VEC2"
  }
 ],
 "bufferViews": [
  {
   "buffer": 0,
   "byteOffset": 0,
   "byteLength": 144,
   "target": 34963
  },
  {
   "buffer": 0,
   "byteOffset": 144,
   "byteLength": 288,
   "target": 34962
  },
  {
   "buffer": 0,
   "byteOffset": 432,
   "byteLength": 288,
   "target": 34962
  },
  {
   "buffer": 0,
   "byteOffset": 720,
   "byteLength": 192,
   "target": 34962
  }
 ],
 "samplers": [
  {
   "magFilter": 9729,
   "minFilter": 9987,
   "wrapS": 10497,
   "wrapT": 10497
  }
 ],
 "textures": [
  {
   "sampler": 0,
   "source": 0
  }
 ],
 "images": [
  {
   "uri": "uv-grid.png"
  }
 ],
 "buffers": [
  {
   "byteLength": 912,
   "uri": "uv-cube.bin"
  }
 ]
}
