<?xml version="1.0" encoding="UTF-8"?>
<svg width="${tooltipSize}" version="1.1" viewBox="0 0 26.458 15.875" xmlns="http://www.w3.org/2000/svg" class="node-selector">
 <g id="eye" transform="matrix(.33883 0 0 .3661 -8.6054 -7.091)" fill="#f00" stroke-width=".77533">
  <g fill="#00f" fill-rule="evenodd" stroke-width=".58245">
   <path d="m28.521 51.168h23.427l1e-6 1e-6v11.563l-1e-6 1e-6h-23.427l-1e-6 -1e-6s-4.5266-5.793 0-11.563z"/>
   <path d="m28.521 19.369h23.427l1e-6 1e-6v11.563l-1e-6 1e-6h-23.427l-1e-6 -1e-6s-4.5266-5.793 0-11.563z"/>
   <path d="m76.936 19.369h23.427c4.7918 5.768 0 11.563 0 11.563h-23.427z"/>
   <path d="m76.936 51.168h23.427c4.7918 5.768 0 11.563 0 11.563h-23.427z"/>
   <rect x="53.51" y="19.369" width="21.865" height="11.563"/>
   <rect x="53.51" y="51.168" width="21.865" height="11.563"/>
  </g>
  <g stroke="#fff">
   <path d="m37.234 25.15s2.6557-2.1167 4.2333-2.1167 4.2333 2.1167 4.2333 2.1167-2.6557 2.1167-4.2333 2.1167-4.2333-2.1167-4.2333-2.1167" fill="none"/>
   <circle cx="41.468" cy="25.15" r="1.0583" fill="none" stroke-linecap="round" stroke-linejoin="round"/>
   <path d="m62.044 22.817 4.991 4.6928" fill="#fff" fill-opacity=".99966" stroke-width=".84468"/>
   <path d="m61.952 27.523 5.1478-4.7836" fill="none" stroke-width=".79503"/>
   <path d="m89.641 22.594s-1.0773-0.16022-2.0485 0.0604c-1.4327 0.32546-0.92426 4.5394-0.60079 4.5722 2.0081 0.20374 4.61-0.07859 4.61-0.07859l0.0373-1.6423" fill="none" stroke-width=".79503"/>
  </g>
  <g fill="#fff">
   <path d="m90.287 22.949 0.93347 0.43048s0.37275-0.79085-0.1385-1.1526" fill-opacity=".99966"/>
   <g>
    <path d="m87.927 26.641 0.58673-1.159 1.514-2.1952 0.85294 0.46579-1.6633 2.1384z"/>
    <path d="m40.102 56.618v-3.0594c0-0.25496 0.82641-0.25496 0.82641 0v3.0594h3.3057c0.27548 0 0.27548 0.76483 0 0.76483h-3.3057v3.0594c0 0.25495-0.82641 0.25495-0.82641 0v-3.0594h-3.3057c-0.27548 0-0.27548-0.76483 0-0.76483h3.3057"/>
    <ellipse cx="63.538" cy="55.955" rx="2.4793" ry="2.2946" stroke="#fff" stroke-linecap="round" stroke-linejoin="round" stroke-width=".79503"/>
   </g>
  </g>
  <ellipse cx="65.882" cy="58.131" rx="2.4793" ry="2.2946" fill="none" stroke="#fff" stroke-linecap="round" stroke-linejoin="round" stroke-width=".79503"/>
  <g transform="matrix(.66187 -.3835 .41437 .61256 36.479 37.345)" fill="#fff">
   <path d="m44.127 58.273 5.6142-0.06487v1.0583l-5.6142 0.06487z"/>
   <path d="m48.683 57.15v3.175l3.175-1.5875z"/>
  </g>
  <ellipse cx="86.965" cy="57.913" rx="2.4793" ry="2.2946" fill="#fff" stroke-width=".58245"/>
  <g id="fg-shapes" transform="translate(-6.5644 -2.1752)" fill="#80ffb3" fill-rule="evenodd" stroke-width=".58245">
   <path d="m35.086 21.544h23.427l1e-6 1e-6v11.563l-1e-6 1e-6h-23.427l-1e-6 -1e-6s-4.5266-5.793 0-11.563z"/>
   <path d="m35.086 53.343h23.427l1e-6 1e-6v11.563l-1e-6 1e-6h-23.427l-1e-6 -1e-6s-4.5266-5.793 0-11.563z"/>
   <rect x="60.074" y="21.544" width="21.865" height="11.563"/>
   <rect x="60.074" y="53.343" width="21.865" height="11.563"/>
   <path d="m83.501 21.544h23.427c4.7918 5.768 0 11.563 0 11.563h-23.427z"/>
   <path d="m83.501 53.343h23.427c4.7918 5.768 0 11.563 0 11.563h-23.427z"/>
  </g>
 </g>
</svg>
